<?xml version="1.0" standalone="no"?>
<!DOCTYPE svg PUBLIC "-//W3C//DTD SVG 20010904//EN"
 "http://www.w3.org/TR/2001/REC-SVG-20010904/DTD/svg10.dtd">
<svg version="1.0" xmlns="http://www.w3.org/2000/svg"
 width="659.000000pt" height="260.000000pt" viewBox="0 0 659.000000 260.000000"
 preserveAspectRatio="xMidYMid meet">

<g transform="translate(0.000000,260.000000) scale(0.100000,-0.100000)"
fill="#000000" stroke="none">
<path d="M670 2229 c-98 -11 -183 -33 -197 -51 -5 -7 -49 -186 -97 -397 -76
-331 -87 -387 -76 -405 12 -19 11 -19 -2 -8 -13 10 -16 8 -22 -19 -7 -38 2
-51 58 -84 60 -34 162 -65 284 -84 100 -16 107 -19 110 -42 2 -13 8 -29 13
-35 5 -6 4 -27 -2 -50 -8 -30 -33 -61 -115 -139 -102 -98 -104 -101 -104 -145
0 -27 18 -96 46 -175 64 -185 62 -174 36 -151 -27 24 -101 148 -143 241 -20
45 -32 87 -33 120 l-1 49 125 72 c114 67 180 119 180 144 0 6 -12 -3 -27 -19
-16 -16 -83 -57 -149 -91 -67 -34 -134 -74 -149 -90 -51 -53 -31 -134 70 -286
79 -118 141 -180 194 -194 28 -7 104 -10 210 -8 140 3 172 7 204 23 48 24 152
163 215 285 37 71 43 91 39 125 -7 51 -31 70 -172 142 -143 72 -162 87 -174
130 -19 69 -11 77 94 91 156 21 306 73 349 121 24 27 13 90 -12 69 -13 -12
-14 -11 -2 8 11 19 2 71 -77 410 l-89 389 -35 17 c-19 9 -63 22 -99 28 -93 15
-350 20 -450 9z m628 -432 c46 -194 84 -366 85 -381 2 -25 -5 -32 -54 -57
-120 -61 -343 -96 -554 -86 -127 7 -237 25 -256 44 -6 6 79 154 234 404 l244
394 87 12 c48 6 90 14 93 17 4 3 14 6 22 6 13 0 33 -69 99 -353z m-863 -488
c28 -10 42 -18 32 -19 -20 0 -147 56 -147 65 0 3 15 -2 33 -11 17 -10 55 -25
82 -35z m865 -4 c-14 -8 -34 -14 -45 -14 -13 0 -7 5 15 13 47 18 61 18 30 1z
m-85 -25 c-11 -5 -27 -9 -35 -9 -9 0 -8 4 5 9 11 5 27 9 35 9 9 0 8 -4 -5 -9z
m-538 -26 c-3 -3 -12 -4 -19 -1 -8 3 -5 6 6 6 11 1 17 -2 13 -5z m386 -1 c-7
-2 -19 -2 -25 0 -7 3 -2 5 12 5 14 0 19 -2 13 -5z"/>
<path d="M2302 1398 l3 -323 60 0 60 0 3 145 c2 133 4 146 23 163 12 9 34 17
50 17 36 0 38 -7 41 -173 3 -145 9 -157 78 -157 66 0 67 5 60 190 -7 175 -16
212 -62 244 -31 22 -96 20 -143 -4 -22 -11 -41 -20 -42 -20 -2 0 -3 45 -3 101
0 130 -5 139 -75 139 l-55 0 2 -322z"/>
<path d="M4702 1398 l3 -323 60 0 60 0 3 145 c2 133 4 146 23 163 27 21 75 22
83 1 3 -9 6 -74 6 -145 0 -116 2 -131 20 -149 13 -13 33 -20 58 -20 68 0 69 4
62 190 -7 175 -16 212 -62 244 -31 22 -96 20 -143 -4 -22 -11 -41 -20 -42 -20
-2 0 -3 45 -3 101 0 130 -5 139 -75 139 l-55 0 2 -322z"/>
<path d="M1928 1680 c-86 -26 -138 -92 -138 -177 0 -82 39 -121 183 -183 82
-35 100 -54 95 -98 -7 -57 -91 -64 -197 -16 -58 26 -57 27 -86 -28 -24 -43
-18 -54 37 -78 148 -63 302 -42 371 52 31 41 34 124 8 175 -25 50 -58 75 -153
114 -96 40 -118 55 -118 83 0 57 75 72 177 36 33 -11 61 -16 66 -11 12 12 36
84 31 93 -3 4 -34 17 -70 28 -67 20 -157 25 -206 10z"/>
<path d="M3844 1679 c-110 -32 -147 -183 -63 -254 l32 -26 -41 -35 c-48 -41
-66 -88 -60 -156 6 -56 30 -94 79 -123 47 -27 131 -26 186 3 41 22 42 22 48 2
5 -17 15 -20 65 -20 l59 0 -2 132 c-2 126 -1 133 18 136 52 8 65 14 76 33 6
12 8 35 5 53 l-6 31 -154 -4 c-165 -3 -190 2 -206 45 -26 67 38 104 139 81
l62 -15 15 30 c25 49 16 71 -36 85 -53 14 -172 15 -216 2z m166 -408 c0 -61
-3 -72 -22 -85 -35 -25 -103 -21 -122 6 -22 31 -20 80 4 111 20 25 42 32 108
36 l32 1 0 -69z"/>
<path d="M2885 1516 c-49 -18 -98 -72 -113 -124 -15 -50 -15 -144 -1 -193 31
-100 128 -153 238 -129 108 24 158 111 149 256 -4 62 -10 82 -34 117 -16 22
-44 49 -61 60 -43 25 -128 31 -178 13z m116 -107 c19 -19 20 -30 17 -121 -2
-85 -6 -102 -22 -114 -27 -19 -52 -18 -76 6 -17 17 -20 33 -20 113 0 80 3 96
20 115 26 28 54 28 81 1z"/>
<path d="M3409 1508 c-45 -23 -47 -24 -69 -6 -12 10 -38 18 -56 18 l-34 0 2
-317 3 -318 45 2 c65 3 80 26 80 119 l0 74 44 -6 c65 -9 108 2 146 39 41 40
59 81 66 155 20 190 -93 309 -227 240z m78 -118 c17 -34 16 -143 -1 -185 -12
-29 -20 -35 -45 -35 -59 0 -61 3 -61 116 0 95 2 104 23 119 31 22 69 15 84
-15z"/>
<path d="M4382 1517 c-18 -5 -46 -25 -62 -44 -25 -28 -30 -43 -30 -84 0 -70
21 -96 110 -136 83 -38 93 -48 79 -75 -12 -23 -59 -24 -123 -2 -52 18 -58 15
-74 -33 -13 -40 -5 -47 73 -68 74 -19 98 -19 162 0 73 22 103 60 103 132 0 52
-3 59 -38 92 -22 20 -64 45 -98 57 -50 17 -59 24 -59 45 0 20 6 25 33 27 19 2
54 -4 80 -12 25 -9 47 -16 48 -16 8 0 33 85 27 91 -13 13 -124 39 -163 38 -19
-1 -50 -6 -68 -12z"/>
<path d="M5285 1515 c-80 -28 -125 -109 -125 -222 0 -171 111 -263 264 -219
91 27 136 100 136 221 0 79 -18 132 -60 176 -53 56 -134 73 -215 44z m115
-105 c17 -17 20 -33 20 -106 0 -105 -17 -143 -62 -144 -10 0 -27 9 -38 20 -17
17 -20 33 -20 115 0 82 3 98 20 115 11 11 29 20 40 20 11 0 29 -9 40 -20z"/>
<path d="M5808 1507 c-44 -22 -46 -23 -68 -5 -12 10 -38 18 -56 18 l-34 0 2
-317 3 -318 45 2 c65 4 80 26 80 118 l0 73 58 -5 c68 -6 103 8 150 61 65 75
68 261 5 337 -53 62 -111 74 -185 36z m79 -117 c17 -34 16 -143 -1 -185 -12
-29 -20 -35 -45 -35 -59 0 -61 3 -61 116 0 95 2 104 23 119 31 22 69 15 84
-15z"/>
</g>
</svg>
